PathFileType	4	(X/Y/Z)	..\data\2014053\dynamic\2014053_C4_04.trc
DataRate	CameraRate	NumFrames	NumMarkers	Units	OrigDataRate	OrigDataStartFrame	OrigNumFrames
100.000000	100.000000	4	52	mm	100.000000	158	181
Frame#	Time	L_IAS			L_IPS			R_IPS			R_IAS			L_FTC			L_FLE			L_FME			L_FAX			L_TTC			L_FAL			L_TAM			L_FCC			L_FM1			L_FM2			L_FM5			R_FTC			R_FLE			R_FME			R_FAX			R_TTC			R_FAL			R_TAM			R_FCC			R_FM1			R_FM2			R_FM5			CV7			TV10			SXS			SJN			L_SIA			L_SRS			L_SAA			L_SAE			L_HLE			L_HME			L_UOA			L_RSP			L_UHE			L_HM2			L_HM5			R_SIA			R_SRS			R_SAA			R_SAE			R_HLE			R_HME			R_UOA			R_RSP			R_UHE			R_HM2			R_HM5			
		X1	Y1	Z1	X2	Y2	Z2	X3	Y3	Z3	X4	Y4	Z4	X5	Y5	Z5	X6	Y6	Z6	X7	Y7	Z7	X8	Y8	Z8	X9	Y9	Z9	X10	Y10	Z10	X11	Y11	Z11	X12	Y12	Z12	X13	Y13	Z13	X14	Y14	Z14	X15	Y15	Z15	X16	Y16	Z16	X17	Y17	Z17	X18	Y18	Z18	X19	Y19	Z19	X20	Y20	Z20	X21	Y21	Z21	X22	Y22	Z22	X23	Y23	Z23	X24	Y24	Z24	X25	Y25	Z25	X26	Y26	Z26	X27	Y27	Z27	X28	Y28	Z28	X29	Y29	Z29	X30	Y30	Z30	X31	Y31	Z31	X32	Y32	Z32	X33	Y33	Z33	X34	Y34	Z34	X35	Y35	Z35	X36	Y36	Z36	X37	Y37	Z37	X38	Y38	Z38	X39	Y39	Z39	X40	Y40	Z40	X41	Y41	Z41	X42	Y42	Z42	X43	Y43	Z43	X44	Y44	Z44	X45	Y45	Z45	X46	Y46	Z46	X47	Y47	Z47	X48	Y48	Z48	X49	Y49	Z49	X50	Y50	Z50	X51	Y51	Z51	X52	Y52	Z52	

159	1.58	1579.030395507813	949.5363769531252	-305.6034851074219	1370.355590820313	976.615417480469	-248.5652465820313	1368.44287109375	973.021179199219	-144.5667419433594	1570.814697265625	959.082458496094	-80.8484573364258	1510.396850585938	877.6196899414065	-387.5620727539064	1505.623779296875	474.5037231445314	-309.2233581542969	1483.65234375	479.4891052246095	-176.879638671875	1475.586669921875	412.2377929687501	-311.1070861816407	1532.62841796875	402.7501525878907	-242.4924774169922	1412.664672851563	64.3407440185547	-258.5192260742188	1425.095336914063	76.91188049316408	-170.8700408935547	1359.788452148438	17.50494766235352	-207.0289459228516	1545.927978515625	18.54671478271485	-150.8114624023438	1564.553955078125	34.77622985839844	-205.2019042968751	1524.921997070313	16.65938377380371	-269.5281066894532	1501.379638671875	879.796325683594	0.7650873661041262	1653.263061523438	513.3210449218751	-34.94579315185548	1669.15087890625	501.1722717285157	-171.2327270507813	1623.637817382813	457.7385864257814	-37.82752990722657	1696.236694335938	424.430633544922	-78.98752593994142	1529.311279296875	100.7835159301758	-70.24668884277345	1571.207763671875	103.4479370117188	-146.2949523925782	1492.4140625	61.49195480346681	-140.7417907714844	1679.806274414063	36.87262725830079	-125.4092102050782	1677.23681640625	49.59907150268556	-73.7263641357422	1630.462524414063	33.41513061523438	-31.29536819458009	1415.185546875	1452.833129882813	-209.4176330566407	1368.95654296875	1222.012451171875	-214.7323303222657	1583.798217773438	1176.739501953125	-209.5374145507813	1528.483032226563	1385.693603515625	-209.9673461914063	1360.548217773438	1268.761474609375	-303.5577392578126	1378.399047851563	1392.380493164063	-302.4897460937501	1441.915161132813	1397.313720703125	-396.8336181640626	1486.882934570313	1403.814086914063	-396.892547607422	1476.101928710938	1086.821899414063	-456.3825073242189	1453.732543945313	1070.878784179688	-377.6544799804688	1445.56494140625	1048.127685546875	-423.0419921875001	1611.588256835938	871.1324462890627	-422.548553466797	1564.474731445313	869.0150146484377	-477.7329406738282	1654.345947265625	796.600769042969	-433.5962524414064	1574.782104492188	790.1475219726565	-482.5455627441407	1349.889526367188	1265.58642578125	-118.7087326049805	1372.817016601563	1388.1201171875	-121.7072219848633	1429.203979492188	1393.380737304688	-33.17404556274415	1476.891357421875	1391.035034179688	-16.61953926086426	1414.131958007813	1081.9072265625	26.63592529296876	1414.361572265625	1070.267822265625	-54.91149139404298	1391.146484375	1050.087524414063	-14.76104164123536	1517.727294921875	847.9597167968752	43.72866821289063	1451.03857421875	852.747497558594	66.06428527832033	1538.14111328125	757.8150634765626	52.35378265380861	1441.4375	772.5753173828127	63.31631088256837	
160	1.59	1588.3134765625	948.7160644531252	-306.3554077148438	1379.84912109375	975.5512695312502	-247.5601806640626	1378.67724609375	971.5122680664065	-143.4688415527344	1581.57861328125	958.707458496094	-81.57492828369142	1519.346801757813	876.9348754882815	-387.756561279297	1509.44189453125	473.765106201172	-309.7982482910157	1487.5029296875	479.1018371582032	-177.3707122802735	1478.641235351563	411.7516479492189	-311.5420227050782	1535.768798828125	401.7010498046876	-243.0692138671876	1412.857666015625	64.31260681152345	-258.5425415039063	1425.31982421875	77.04232788085939	-170.9639282226563	1359.566162109375	17.80852890014649	-206.9917449951172	1545.8662109375	18.59661102294922	-150.8963775634766	1564.587280273438	34.71823120117188	-205.3357391357422	1524.902221679688	16.46936225891114	-269.7056579589844	1513.984130859375	879.6890258789065	0.8825600147247317	1664.197387695313	512.8978271484376	-36.2650260925293	1679.76416015625	500.712127685547	-172.5648956298828	1635.521850585938	455.892547607422	-39.32114791870118	1710.044921875	425.8613891601564	-79.69113159179689	1562.726806640625	93.78445434570314	-71.51306152343751	1605.979614257813	98.57906341552737	-147.1814422607422	1529.57568359375	52.22380828857423	-142.7076873779297	1717.88427734375	37.99864196777344	-123.9453353881836	1713.624267578125	50.63330841064455	-72.36642456054689	1666.887573242188	32.23468780517579	-30.61488342285157	1425.59375	1452.168090820313	-209.9995422363282	1378.538208007813	1221.528564453125	-215.3369903564454	1593.5986328125	1175.742065429688	-210.1674346923829	1538.78076171875	1384.705200195313	-210.4147644042969	1370.58203125	1268.400024414063	-304.3283691406251	1388.629272460938	1391.94189453125	-303.2096252441407	1452.560791015625	1396.795043945313	-397.4769287109376	1497.533447265625	1403.205078125	-397.3766479492189	1487.423095703125	1086.231811523438	-457.3356933593751	1464.510986328125	1070.109741210938	-378.7441406250001	1456.689819335938	1047.160522460938	-424.2884521484376	1625.486938476563	872.3616333007815	-422.508758544922	1578.5810546875	869.3896484375002	-477.839569091797	1669.603881835938	798.559265136719	-433.3540344238282	1590.175415039063	790.606628417969	-482.3155822753907	1359.794799804688	1264.812866210938	-119.6089401245117	1382.874755859375	1387.36962890625	-122.4901275634766	1439.041870117188	1392.413818359375	-33.73229217529298	1486.59375	1389.976196289063	-17.04463577270508	1421.573120117188	1081.349975585938	26.00261306762696	1422.40283203125	1069.525756835938	-55.55994415283205	1398.787963867188	1049.38232421875	-15.5316743850708	1525.533569335938	847.5359497070315	44.13277053833009	1458.797485351563	852.1267700195315	65.91336822509767	1546.306884765625	757.6605224609376	53.32101821899415	1449.525268554688	771.8380126953127	63.15712356567384	
161	1.6	1597.686401367188	947.789001464844	-307.0186157226563	1389.484375	974.4370727539065	-246.4742889404297	1389.096435546875	969.9824829101565	-142.3190155029297	1592.531372070313	958.114196777344	-82.20404052734376	1528.357788085938	876.1651611328127	-387.885467529297	1513.557861328125	472.9782714843751	-310.3210754394532	1491.456787109375	478.7046813964845	-177.8436126708985	1481.963623046875	411.2315673828126	-311.9673461914063	1539.080078125	400.5841674804689	-243.5686187744141	1413.063598632813	64.31161499023439	-258.5997009277344	1425.57861328125	77.18301391601564	-171.0964965820313	1359.406616210938	18.1485767364502	-206.9901428222657	1545.770263671875	18.64280891418457	-150.9672393798828	1564.607055664063	34.65224075317384	-205.4719543457032	1524.8955078125	16.26161193847657	-269.8831787109376	1526.566772460938	879.3543701171877	0.9983261227607729	1674.482055664063	511.8143310546876	-37.58205795288087	1689.684692382813	499.6743164062501	-173.9968566894532	1646.99365234375	453.5238342285157	-40.81065368652344	1723.245239257813	426.9197082519532	-80.59082794189455	1596.355346679688	87.61106109619142	-72.78551483154298	1640.66455078125	94.67617797851564	-148.181869506836	1566.949340820313	44.06679916381837	-144.6024475097657	1755.506225585938	40.1648178100586	-123.0065231323242	1749.737670898438	52.61344528198244	-71.52059936523439	1703.28662109375	31.95757293701173	-30.31306648254395	1436.052001953125	1451.326049804688	-210.5688934326172	1388.298950195313	1220.8427734375	-215.7626190185547	1603.433837890625	1174.564453125	-210.7485046386719	1549.126831054688	1383.535400390625	-210.8573455810547	1380.640258789063	1267.87353515625	-305.0441589355469	1398.90283203125	1391.34130859375	-303.9288330078126	1463.285888671875	1396.076293945313	-398.1170654296876	1508.266845703125	1402.380004882813	-397.834197998047	1498.7509765625	1085.41455078125	-458.2059020996095	1475.3134765625	1069.116333007813	-379.7413940429688	1467.8173828125	1045.975463867188	-425.4250793457032	1639.239135742188	873.350036621094	-422.3091430664064	1592.58154296875	869.5562744140627	-477.8077087402345	1684.676635742188	800.271667480469	-432.9613647460939	1605.434692382813	790.881042480469	-481.9682617187501	1369.765747070313	1263.891723632813	-120.4227676391602	1393.004028320313	1386.464721679688	-123.2275009155274	1449.000244140625	1391.2568359375	-34.30193710327149	1496.387573242188	1388.799682617188	-17.44353103637696	1429.234985351563	1080.637817382813	25.36482238769532	1430.6201171875	1068.645141601563	-56.19948577880861	1406.62060546875	1048.544311523438	-16.2867660522461	1533.491333007813	846.9495849609377	44.43668365478516	1466.756958007813	851.3663330078127	65.73513793945314	1554.61279296875	757.3364257812501	54.18080139160158	1457.836547851563	770.9654541015627	63.02565002441408	
162	1.61	1607.158081054688	946.7531738281252	-307.6088256835938	1399.2685546875	973.293151855469	-245.3228454589844	1399.705200195313	968.4644775390627	-141.1328125	1603.671508789063	957.2872314453127	-82.75180816650392	1537.389770507813	875.3026123046877	-387.9595336914064	1517.971069335938	472.1414184570314	-310.7935791015626	1495.581909179688	478.2772521972657	-178.2915954589844	1485.555908203125	410.6797180175782	-312.3773498535157	1542.584716796875	399.3938903808595	-244.0056762695313	1413.281616210938	64.33943939208986	-258.6806030273438	1425.875610351563	77.34100341796876	-171.2647705078125	1359.317749023438	18.53006744384766	-207.0201873779297	1545.64453125	18.6831340789795	-151.021957397461	1564.6220703125	34.57820892333985	-205.6047363281251	1524.901733398438	16.04254913330078	-270.0581665039063	1539.102905273438	878.760192871094	1.095158219337464	1684.20654296875	510.1119384765626	-38.8708724975586	1698.946899414063	498.0931091308595	-175.513412475586	1658.160522460938	450.6912231445314	-42.26066207885743	1735.906494140625	427.6314392089845	-81.70674133300783	1630.037841796875	82.3726272583008	-74.07102203369142	1675.014404296875	91.80856323242189	-149.3137817382813	1604.271850585938	37.14321517944337	-146.4242858886719	1792.457397460938	43.38314056396485	-122.6921768188477	1785.411010742188	55.56906127929689	-71.28685760498048	1739.516479492188	32.64899444580079	-30.4647388458252	1446.552490234375	1450.306884765625	-211.1209869384766	1398.243896484375	1219.95556640625	-216.0041809082032	1613.310180664063	1173.221313476563	-211.2830810546876	1559.517822265625	1382.196655273438	-211.2958221435547	1390.7255859375	1267.172729492188	-305.6897583007813	1409.216674804688	1390.565551757813	-304.6286010742188	1474.061645507813	1395.157470703125	-398.7447509765626	1519.055053710938	1401.346313476563	-398.2638549804689	1510.096069335938	1084.377197265625	-458.9867553710939	1486.156372070313	1067.908081054688	-380.6407775878907	1478.9794921875	1044.58203125	-426.4426574707032	1652.84326171875	874.0855102539065	-421.9548950195314	1606.473876953125	869.511169433594	-477.6418457031251	1699.548706054688	801.719421386719	-432.414764404297	1620.545654296875	790.9663696289065	-481.5112609863282	1379.817260742188	1262.822875976563	-121.1387710571289	1403.206420898438	1385.4033203125	-123.9154815673828	1459.064086914063	1389.926635742188	-34.88446044921876	1506.273803710938	1387.522705078125	-17.81870460510254	1437.122436523438	1079.784301757813	24.73109436035157	1439.016479492188	1067.643920898438	-56.82593536376955	1414.6533203125	1047.587036132813	-17.02156066894532	1541.592529296875	846.207946777344	44.64593124389649	1474.892211914063	850.474304199219	65.52589416503908	1563.039428710938	756.8367309570314	54.92135238647462	1466.33544921875	769.9661865234377	62.90393829345705	
